<svg xmlns="http://www.w3.org/2000/svg" width="200" height="200" style=""><rect id="backgroundrect" width="80%" height="80%" x="0" y="0" fill="none" stroke="none"/><g class="currentLayer" style=""><title>Layer 1</title><path d="M105.80000030994415,22.69999988079071 V6.399999880790711 h-5.9 V4.29999988079071 c0.8,0 1.5,-0.1 2.2,-0.2 c0.7000000000000001,-0.1 1.4,-0.30000000000000004 2,-0.7000000000000001 c0.6000000000000001,-0.30000000000000004 1.1,-0.8 1.5,-1.3 c0.4,-0.6000000000000001 0.7000000000000001,-1.3 0.8,-2.1 h2.1 v22.7 h-2.7 zM114.40000030994415,4.79999988079071 c0.30000000000000004,-1 0.8,-1.8 1.4,-2.5 c0.6000000000000001,-0.7000000000000001 1.4,-1.3 2.4,-1.7000000000000002 c0.9,-0.4 2,-0.6000000000000001 3.2,-0.6000000000000001 c1,0 1.9,0.1 2.8,0.4 c0.9,0.30000000000000004 1.6,0.7000000000000001 2.3,1.2 c0.6000000000000001,0.5 1.1,1.2 1.5,2 c0.4,0.8 0.6000000000000001,1.7000000000000002 0.6000000000000001,2.8 c0,1 -0.2,1.9 -0.5,2.7 s-0.7000000000000001,1.5 -1.2,2.1 c-0.5,0.6000000000000001 -1.1,1.2 -1.8,1.6 c-0.7000000000000001,0.5 -1.3,1 -2,1.4 c-0.7000000000000001,0.4 -1.4,0.8 -2.1,1.3 s-1.3,0.9 -1.9,1.3 c-0.6000000000000001,0.5 -1.1,1 -1.5,1.5 s-0.7000000000000001,1.2 -0.8,1.9 h11.6 v2.4 h-14.8 c0.1,-1.3 0.30000000000000004,-2.5 0.7000000000000001,-3.4 c0.4,-0.9 0.8,-1.8 1.4,-2.5 s1.2,-1.3 2,-1.9 c0.7000000000000001,-0.5 1.5,-1 2.3,-1.5 c1,-0.6000000000000001 1.8,-1.1 2.5,-1.6 s1.3,-1 1.8,-1.5 s0.8,-1.1 1.1,-1.7000000000000002 s0.4,-1.3 0.4,-2.1 c0,-0.6000000000000001 -0.1,-1.2 -0.4,-1.7000000000000002 c-0.2,-0.5 -0.5,-0.9 -0.9,-1.3 s-0.9,-0.6000000000000001 -1.4,-0.8 c-0.5,-0.2 -1.1,-0.30000000000000004 -1.7000000000000002,-0.30000000000000004 c-0.8,0 -1.5,0.2 -2,0.5 c-0.6000000000000001,0.30000000000000004 -1,0.8 -1.4,1.3 c-0.4,0.5 -0.6000000000000001,1.1 -0.8,1.8 s-0.2,1.3 -0.2,2 H114.30000030994415 c-0.30000000000000004,-1 -0.2,-2.1 0.1,-3.1 zM166.80000030994415,38.19999988079071 V21.89999988079071 h-5.9 v-2.2 c0.8,0 1.5,-0.1 2.2,-0.2 c0.7000000000000001,-0.1 1.4,-0.30000000000000004 2,-0.7000000000000001 c0.6000000000000001,-0.30000000000000004 1.1,-0.8 1.5,-1.3 c0.4,-0.6000000000000001 0.7000000000000001,-1.3 0.8,-2.1 h2.1 v22.7 h-2.7 zM199.20000030994416,59.19999988079071 c0.30000000000000004,-1 0.8,-1.8 1.4,-2.5 c0.6000000000000001,-0.7000000000000001 1.4,-1.3 2.4,-1.7000000000000002 c0.9,-0.4 2,-0.6000000000000001 3.2,-0.6000000000000001 c1,0 1.9,0.1 2.8,0.4 c0.9,0.30000000000000004 1.6,0.7000000000000001 2.3,1.2 c0.6000000000000001,0.5 1.1,1.2 1.5,2 c0.4,0.8 0.6000000000000001,1.7000000000000002 0.6000000000000001,2.8 c0,1 -0.2,1.9 -0.5,2.7 s-0.7000000000000001,1.5 -1.2,2.1 c-0.5,0.6000000000000001 -1.1,1.2 -1.8,1.6 c-0.7000000000000001,0.5 -1.3,1 -2,1.4 c-0.7000000000000001,0.4 -1.4,0.8 -2.1,1.3 s-1.3,0.9 -1.9,1.3 c-0.6000000000000001,0.5 -1.1,1 -1.5,1.5 s-0.7000000000000001,1.2 -0.8,1.9 h11.6 V76.99999988079071 H198.30000030994415 c0.1,-1.3 0.30000000000000004,-2.5 0.7000000000000001,-3.4 c0.4,-0.9 0.8,-1.8 1.4,-2.5 s1.2,-1.3 2,-1.9 c0.7000000000000001,-0.5 1.5,-1 2.3,-1.5 c1,-0.6000000000000001 1.8,-1.1 2.5,-1.6 s1.3,-1 1.8,-1.5 s0.8,-1.1 1.1,-1.7000000000000002 s0.4,-1.3 0.4,-2.1 c0,-0.6000000000000001 -0.1,-1.2 -0.4,-1.7000000000000002 c-0.2,-0.5 -0.5,-0.9 -0.9,-1.3 s-0.9,-0.6000000000000001 -1.4,-0.8 c-0.5,-0.2 -1.1,-0.30000000000000004 -1.7000000000000002,-0.30000000000000004 c-0.8,0 -1.5,0.2 -2,0.5 c-0.6000000000000001,0.30000000000000004 -1,0.8 -1.4,1.3 c-0.4,0.5 -0.6000000000000001,1.1 -0.8,1.8 s-0.2,1.3 -0.2,2 h-2.7 c-0.2,-1.1 -0.1,-2.1 0.2,-3.1 zM217.90000030994415,115.0999998807907 H218.80000030994415 c0.6000000000000001,0 1.1,-0.1 1.6,-0.2 s1,-0.4 1.4,-0.7000000000000001 c0.4,-0.30000000000000004 0.7000000000000001,-0.7000000000000001 0.9,-1.2 c0.2,-0.5 0.4,-1 0.4,-1.6 c0,-1.2 -0.4,-2.1 -1.2,-2.7 c-0.8,-0.6000000000000001 -1.7000000000000002,-0.9 -2.9,-0.9 c-0.7000000000000001,0 -1.4,0.1 -1.9,0.4 c-0.5,0.30000000000000004 -1,0.6000000000000001 -1.3,1.1 c-0.4,0.4 -0.6000000000000001,1 -0.8,1.6 c-0.2,0.6000000000000001 -0.30000000000000004,1.2 -0.30000000000000004,1.9 h-2.7 c0,-1.1 0.2,-2.1 0.5,-3 s0.8,-1.7000000000000002 1.3,-2.3 c0.6000000000000001,-0.6000000000000001 1.3,-1.1 2.2,-1.5 c0.9,-0.4 1.9,-0.5 3,-0.5 c1,0 1.9,0.1 2.7,0.4 s1.6,0.6000000000000001 2.2,1.1 c0.6000000000000001,0.5 1.1,1.1 1.5,1.9 s0.5,1.7000000000000002 0.5,2.7 c0,1 -0.30000000000000004,1.9 -0.9,2.7 c-0.6000000000000001,0.8 -1.3,1.4 -2.2,1.8 v0.1 c1.4,0.30000000000000004 2.4,1 3.1,2 c0.7000000000000001,1 1,2.2 1,3.6 c0,1.1 -0.2,2.1 -0.6000000000000001,3 c-0.4,0.9 -1,1.6 -1.7000000000000002,2.2 s-1.5,1 -2.5,1.3 s-2,0.4 -3,0.4 c-1.2,0 -2.2,-0.2 -3.1,-0.5 c-0.9,-0.30000000000000004 -1.7000000000000002,-0.8 -2.4,-1.4 c-0.7000000000000001,-0.6000000000000001 -1.2,-1.4 -1.5,-2.3 c-0.4,-0.9 -0.5,-2 -0.5,-3.1 h2.7 c0,1.5 0.5,2.7 1.3,3.6 c0.8,0.9 2,1.4 3.6,1.4 c0.7000000000000001,0 1.3,-0.1 1.9,-0.30000000000000004 c0.6000000000000001,-0.2 1.1,-0.5 1.6,-0.9 s0.8,-0.8 1.1,-1.4 s0.4,-1.2 0.4,-1.8 c0,-0.7000000000000001 -0.1,-1.3 -0.4,-1.9 s-0.6000000000000001,-1 -1,-1.4 s-0.9,-0.7000000000000001 -1.5,-0.8 s-1.2,-0.30000000000000004 -1.9,-0.30000000000000004 c-0.6000000000000001,0 -1.1,0 -1.6,0.1 V114.99999988079071 c-0.1,0.1 0,0.1 0.1,0.1 zM214.50000030994414,173.79999988079072 v2.4 h-3.1 v5.3 h-2.6 v-5.3 h-10 v-2.6 l10.3,-14.8 h2.2 v15 h3.2 zm-5.6,-11.1 l-7.6,11.1 h7.6 v-11.1 zM164.00000030994414,199.39999988079072 l-1.2,6.5 l0.1,0.1 c0.5,-0.6000000000000001 1.1,-1 1.9,-1.2 c0.8,-0.30000000000000004 1.6,-0.4 2.3,-0.4 c1,0 2,0.2 2.8,0.5 c0.9,0.30000000000000004 1.7000000000000002,0.8 2.3,1.5 c0.7000000000000001,0.7000000000000001 1.2,1.5 1.6,2.4 s0.6000000000000001,2.1 0.6000000000000001,3.4 c0,1 -0.2,1.9 -0.5,2.8 c-0.30000000000000004,0.9 -0.8,1.7000000000000002 -1.5,2.4 s-1.5,1.3 -2.5,1.7000000000000002 s-2.1,0.6000000000000001 -3.5,0.6000000000000001 c-1,0 -1.9,-0.1 -2.8,-0.4 s-1.6,-0.7000000000000001 -2.3,-1.2 s-1.2,-1.2 -1.6,-2 c-0.4,-0.8 -0.6000000000000001,-1.7000000000000002 -0.6000000000000001,-2.8 h2.7 c0,0.6000000000000001 0.2,1.1 0.4,1.6 s0.6000000000000001,0.9 1,1.3 s0.9,0.7000000000000001 1.5,0.9 c0.6000000000000001,0.2 1.2,0.30000000000000004 1.9,0.30000000000000004 c0.6000000000000001,0 1.3,-0.1 1.8,-0.30000000000000004 c0.6000000000000001,-0.2 1.1,-0.6000000000000001 1.5,-1 c0.4,-0.4 0.8,-1 1,-1.7000000000000002 c0.30000000000000004,-0.7000000000000001 0.4,-1.5 0.4,-2.4 c0,-0.7000000000000001 -0.1,-1.4 -0.4,-2.1 s-0.6000000000000001,-1.2 -1,-1.6 s-1,-0.8 -1.6,-1.1 s-1.3,-0.4 -2.1,-0.4 c-0.9,0 -1.7000000000000002,0.2 -2.4,0.6000000000000001 c-0.7000000000000001,0.4 -1.3,0.9 -1.8,1.6 l-2.3,-0.1 l2.1,-11.8 h11.2 v2.4 h-9 zM116.70000030994416,214.0999998807907 c-0.7000000000000001,-0.6000000000000001 -1.5,-0.9 -2.6,-0.9 c-1.2,0 -2.1,0.30000000000000004 -2.8,0.8 s-1.3,1.3 -1.6,2.1 s-0.7000000000000001,1.8 -0.8,2.8 c-0.1,1 -0.2,1.9 -0.30000000000000004,2.8 l0.1,0.1 c0.6000000000000001,-1 1.4,-1.8 2.4,-2.3 c0.9,-0.5 2,-0.7000000000000001 3.3,-0.7000000000000001 c1.1,0 2.1,0.2 2.9,0.6000000000000001 c0.9,0.4 1.6,0.9 2.2,1.6 s1,1.4 1.4,2.3 c0.30000000000000004,0.9 0.5,1.9 0.5,2.9 c0,0.8 -0.1,1.7000000000000002 -0.4,2.6 c-0.30000000000000004,0.9 -0.7000000000000001,1.7000000000000002 -1.3,2.4 c-0.6000000000000001,0.7000000000000001 -1.4,1.3 -2.3,1.8 c-1,0.5 -2.2,0.7000000000000001 -3.6,0.7000000000000001 c-1.7000000000000002,0 -3,-0.30000000000000004 -4.1,-1 s-1.8,-1.6 -2.4,-2.6 c-0.6000000000000001,-1.1 -0.9,-2.2 -1.1,-3.5 c-0.2,-1.3 -0.30000000000000004,-2.5 -0.30000000000000004,-3.7 c0,-1.6 0.1,-3.1 0.4,-4.5 c0.30000000000000004,-1.5 0.7000000000000001,-2.8 1.4,-3.9 c0.6000000000000001,-1.1 1.5,-2 2.6,-2.7 c1.1,-0.7000000000000001 2.4,-1 4,-1 c1.9,0 3.4,0.5 4.5,1.5 s1.7000000000000002,2.4 1.9,4.3 h-2.7 c-0.2,-1.1 -0.6000000000000001,-1.9 -1.3,-2.5 zm-4.9,7.5 c-0.6000000000000001,0.30000000000000004 -1.1,0.6000000000000001 -1.5,1.1 c-0.4,0.5 -0.7000000000000001,1 -0.9,1.6 c-0.2,0.6000000000000001 -0.30000000000000004,1.3 -0.30000000000000004,2 s0.1,1.4 0.30000000000000004,2 c0.2,0.6000000000000001 0.5,1.2 0.9,1.6 c0.4,0.4 0.9,0.8 1.5,1.1 c0.6000000000000001,0.30000000000000004 1.3,0.4 2,0.4 s1.4,-0.1 2,-0.4 c0.6000000000000001,-0.30000000000000004 1,-0.6000000000000001 1.4,-1.1 c0.4,-0.5 0.7000000000000001,-1 0.9,-1.6 s0.30000000000000004,-1.2 0.30000000000000004,-1.9 s-0.1,-1.4 -0.30000000000000004,-2 c-0.2,-0.6000000000000001 -0.5,-1.2 -0.8,-1.6 c-0.4,-0.5 -0.9,-0.8 -1.4,-1.1 s-1.2,-0.4 -2,-0.4 c-0.9,-0.1 -1.5,0.1 -2.1,0.30000000000000004 zM65.20000030994416,203.39999988079072 c-1,1.6 -1.9,3.2 -2.7,5 c-0.8,1.8 -1.4,3.6 -1.9,5.5 s-0.8,3.7 -0.9,5.5 h-3 c0.1,-1.9 0.4,-3.8 0.9,-5.6 c0.5,-1.8 1.1,-3.6 1.9,-5.2 s1.7000000000000002,-3.3 2.7,-4.8 c1,-1.5 2.1,-2.9 3.3,-4.1 H53.80000030994415 V196.9999998807907 h14.7 v2.3 c-1.2,1.2 -2.3,2.5 -3.3,4.1 zM15.500000309944152,162.0999998807907 c0.4,-0.7000000000000001 0.9,-1.3 1.5,-1.8 s1.3,-0.9 2.1,-1.1 c0.8,-0.30000000000000004 1.6,-0.4 2.5,-0.4 c1.2,0 2.3,0.2 3.2,0.5 c0.9,0.30000000000000004 1.6,0.8 2.1,1.3 s0.9,1.2 1.2,1.9 c0.30000000000000004,0.7000000000000001 0.4,1.4 0.4,2.1 c0,1 -0.30000000000000004,2 -0.8,2.8 s-1.3,1.5 -2.3,1.9 c1.4,0.4 2.4,1.1 3,2.1 s1,2.2 1,3.6 c0,1.1 -0.2,2.1 -0.6000000000000001,2.9 c-0.4,0.9 -0.9,1.6 -1.6,2.2 s-1.5,1 -2.4,1.3 s-1.9,0.4 -2.9,0.4 c-1.1,0 -2.1,-0.1 -3,-0.4 c-0.9,-0.30000000000000004 -1.8,-0.7000000000000001 -2.4,-1.3 s-1.2,-1.3 -1.6,-2.2 c-0.4,-0.9 -0.6000000000000001,-1.9 -0.6000000000000001,-3 c0,-1.3 0.30000000000000004,-2.5 1,-3.5 s1.7000000000000002,-1.7000000000000002 2.9,-2.2 c-1,-0.4 -1.7000000000000002,-1 -2.3,-1.9 c-0.6000000000000001,-0.9 -0.9,-1.8 -0.9,-2.8 c-0.1,-0.9 0.1,-1.7000000000000002 0.5,-2.4 zm2.9,16.2 c0.9,0.8 2.1,1.2 3.5,1.2 c0.7000000000000001,0 1.3,-0.1 1.9,-0.30000000000000004 c0.6000000000000001,-0.2 1.1,-0.5 1.5,-0.9 s0.7000000000000001,-0.9 1,-1.4 s0.30000000000000004,-1.1 0.30000000000000004,-1.8 c0,-0.6000000000000001 -0.1,-1.2 -0.4,-1.7000000000000002 s-0.6000000000000001,-1 -1,-1.4 s-0.9,-0.7000000000000001 -1.5,-0.9 c-0.6000000000000001,-0.2 -1.2,-0.30000000000000004 -1.8,-0.30000000000000004 c-0.7000000000000001,0 -1.3,0.1 -1.9,0.30000000000000004 c-0.6000000000000001,0.2 -1.1,0.5 -1.5,0.9 c-0.4,0.4 -0.8,0.8 -1,1.4 c-0.2,0.5 -0.4,1.1 -0.4,1.8 c-0.1,1.2 0.30000000000000004,2.3 1.3,3.1 zm-0.30000000000000004,-12 c0.2,0.5 0.5,0.8 0.9,1.1 c0.4,0.30000000000000004 0.8,0.5 1.3,0.7000000000000001 c0.5,0.1 1,0.2 1.6,0.2 c1.1,0 2,-0.30000000000000004 2.7,-1 c0.7000000000000001,-0.6000000000000001 1.1,-1.5 1.1,-2.7 s-0.4,-2 -1.1,-2.6 c-0.7000000000000001,-0.6000000000000001 -1.6,-0.9 -2.7,-0.9 c-0.5,0 -1,0.1 -1.5,0.2 s-0.9,0.4 -1.3,0.7000000000000001 c-0.4,0.30000000000000004 -0.6000000000000001,0.7000000000000001 -0.8,1.1 c-0.2,0.4 -0.30000000000000004,0.9 -0.30000000000000004,1.5 c-0.2,0.7000000000000001 -0.1,1.2 0.1,1.7000000000000002 zM4.800000309944153,125.0999998807907 c0.8,0.6000000000000001 1.7000000000000002,0.9 2.8,0.9 c1.7000000000000002,0 2.9,-0.7000000000000001 3.7,-2.2 s1.3,-3.6 1.4,-6.6 l-0.1,-0.1 c-0.5,1 -1.2,1.7000000000000002 -2.2,2.3 c-0.9,0.6000000000000001 -2,0.8 -3.1,0.8 c-1.2,0 -2.2,-0.2 -3.1,-0.6000000000000001 c-0.9,-0.4 -1.6,-0.9 -2.3,-1.6 c-0.6000000000000001,-0.7000000000000001 -1.1,-1.5 -1.4,-2.4 c-0.30000000000000004,-0.9 -0.5,-2 -0.5,-3.1 s0.2,-2.1 0.5,-3 c0.4,-0.9 0.9,-1.7000000000000002 1.5,-2.3 c0.7000000000000001,-0.7000000000000001 1.5,-1.2 2.4,-1.5 c0.9,-0.4 1.9,-0.5 3,-0.5 s2.1,0.2 3,0.5 c0.9,0.30000000000000004 1.8,0.9 2.5,1.7000000000000002 c0.7000000000000001,0.8 1.3,1.9 1.7000000000000002,3.3 c0.4,1.4 0.6000000000000001,3.2 0.6000000000000001,5.3 c0,3.9 -0.6000000000000001,6.9 -1.9,9 c-1.2,2.1 -3.2,3.2 -6,3.2 c-1.9,0 -3.5,-0.5 -4.7,-1.4 s-2,-2.4 -2.1,-4.4 h2.7 c0.4,1.2 0.9,2.1 1.6,2.7 zm7.2,-14.2 c-0.2,-0.6000000000000001 -0.5,-1.2 -0.9,-1.6 s-0.9,-0.9 -1.5,-1.1 c-0.6000000000000001,-0.30000000000000004 -1.2,-0.4 -2,-0.4 s-1.5,0.1 -2.1,0.4 s-1,0.7000000000000001 -1.4,1.2 c-0.4,0.5 -0.6000000000000001,1.1 -0.8,1.7000000000000002 c-0.2,0.6000000000000001 -0.2,1.3 -0.2,2 c0,0.6000000000000001 0.1,1.2 0.30000000000000004,1.8 c0.2,0.6000000000000001 0.5,1.1 0.9,1.5 c0.4,0.4 0.9,0.8 1.4,1.1 s1.1,0.4 1.8,0.4 s1.3,-0.1 1.9,-0.4 s1.1,-0.6000000000000001 1.5,-1.1 c0.4,-0.5 0.7000000000000001,-1 0.9,-1.6 c0.2,-0.6000000000000001 0.30000000000000004,-1.2 0.30000000000000004,-1.9 c0.2,-0.7000000000000001 0.1,-1.4 -0.1,-2 zM13.900000309944152,75.99999988079071 V59.79999988079071 H8.100000309944154 v-2.2 c0.8,0 1.5,-0.1 2.2,-0.2 c0.7000000000000001,-0.1 1.4,-0.30000000000000004 2,-0.7000000000000001 c0.6000000000000001,-0.30000000000000004 1.1,-0.8 1.5,-1.3 c0.4,-0.6000000000000001 0.7000000000000001,-1.3 0.8,-2.1 h2.1 V75.99999988079071 h-2.8 zM22.20000030994415,62.29999988079071 c0,-0.9 0.1,-1.8 0.30000000000000004,-2.6 c0.2,-0.9 0.4,-1.7000000000000002 0.7000000000000001,-2.4 c0.30000000000000004,-0.8 0.8,-1.4 1.3,-2 c0.6000000000000001,-0.6000000000000001 1.3,-1 2.1,-1.4 s1.9,-0.5 3,-0.5 c1.2,0 2.2,0.2 3,0.5 s1.5,0.8 2.1,1.4 c0.6000000000000001,0.6000000000000001 1,1.2 1.3,2 c0.30000000000000004,0.8 0.6000000000000001,1.6 0.7000000000000001,2.4 c0.2,0.9 0.30000000000000004,1.7000000000000002 0.30000000000000004,2.6 s0.1,1.8 0.1,2.6 s0,1.7000000000000002 -0.1,2.6 s-0.1,1.8 -0.30000000000000004,2.6 c-0.2,0.9 -0.4,1.7000000000000002 -0.7000000000000001,2.4 s-0.8,1.4 -1.3,2 c-0.6000000000000001,0.6000000000000001 -1.2,1 -2.1,1.4 s-1.8,0.5 -3,0.5 s-2.2,-0.2 -3,-0.5 s-1.5,-0.8 -2.1,-1.4 c-0.6000000000000001,-0.6000000000000001 -1,-1.2 -1.3,-2 s-0.6000000000000001,-1.6 -0.7000000000000001,-2.4 c-0.2,-0.9 -0.30000000000000004,-1.7000000000000002 -0.30000000000000004,-2.6 c0,-0.9 -0.1,-1.8 -0.1,-2.6 c0.1,-0.8 0.1,-1.7000000000000002 0.1,-2.6 zm2.9,5.4 c0.1,1.1 0.2,2 0.5,3 c0.30000000000000004,0.9 0.8,1.7000000000000002 1.4,2.4 s1.5,1 2.7,1 c1.2,0 2,-0.30000000000000004 2.7,-1 s1.1,-1.4 1.4,-2.4 c0.30000000000000004,-0.9 0.5,-1.9 0.5,-3 c0.1,-1.1 0.1,-2 0.1,-2.9 V62.99999988079071 c0,-0.7000000000000001 -0.1,-1.3 -0.2,-2 s-0.2,-1.3 -0.4,-2 c-0.2,-0.6000000000000001 -0.4,-1.2 -0.8,-1.7000000000000002 s-0.8,-0.9 -1.3,-1.2 s-1.2,-0.4 -2,-0.4 s-1.4,0.1 -2,0.4 c-0.5,0.30000000000000004 -1,0.7000000000000001 -1.3,1.2 c-0.4,0.5 -0.6000000000000001,1 -0.8,1.7000000000000002 c-0.2,0.6000000000000001 -0.30000000000000004,1.3 -0.4,2 c-0.1,0.7000000000000001 -0.1,1.3 -0.2,2 v1.8 c0.1,0.9 0.1,1.9 0.1,2.9 z" id="svg_1" class="selected" fill="#ffffff" fill-opacity="1"/><g id="svg_2" class="" fill="#ffffff" fill-opacity="1"><path d="M53.80000030994415,38.19999988079071 V21.89999988079071 h-5.9 v-2.2 c0.8,0 1.5,-0.1 2.2,-0.2 c0.7000000000000001,-0.1 1.4,-0.30000000000000004 2,-0.7000000000000001 c0.6000000000000001,-0.30000000000000004 1.1,-0.8 1.5,-1.3 c0.4,-0.6000000000000001 0.7000000000000001,-1.3 0.8,-2.1 h2.1 v22.7 h-2.7 zM69.40000030994415,38.19999988079071 V21.89999988079071 h-5.9 v-2.2 c0.8,0 1.5,-0.1 2.2,-0.2 c0.7000000000000001,-0.1 1.4,-0.30000000000000004 2,-0.7000000000000001 c0.6000000000000001,-0.30000000000000004 1.1,-0.8 1.5,-1.3 c0.4,-0.6000000000000001 0.7000000000000001,-1.3 0.8,-2.1 h2.1 v22.7 h-2.7 z" id="svg_3" fill="#ffffff" fill-opacity="1"/></g></g></svg>
